# xmcd
#
# Track frame offsets:
#	150
#	30726
#	58427
#	92463
#	124768
#	150909
#	181146
#	203695
#	227171
#	251972
#	281412
#	310201
#
# Disc length: 4348
#
# Revision: 1
# Processed by: cddbd v1.5.1PL0 Copyright (c) Steve Scherf et al.
# Submitted via: EasyCDDAExtractor 8.0.2.1
# Normalized: r0:DSETVAR1
#
DISCID=9e10fa0c
DTITLE=Various Artist - DEE JAY MIX CLUB 2005 MARZEC PART 2
DYEAR=2005
DGENRE=Dance
TTITLE0=ANGEL CITY FEAT LARA MCALLEN - SUNRISE(RMX)
TTITLE1=SPRINGBREAK - SHUT UP(RMX)
TTITLE2=SYLVER - MAKE IT
TTITLE3=TIESTO - ADAGIO FOR STRINGS(RMX)
TTITLE4=THE ORIGINATORZ - JUMP AROUND
TTITLE5=BLUE NATURE - LOVE OR DIE
TTITLE6=ARSENIUM - LOVE ME...LOVE ME ...(RMX)
TTITLE7=VIRUS INCORPORATION - HEAVEN IS A PLACE ON EARTH
TTITLE8=GLOBAL DEEJAYS - WHAT A FEELING
TTITLE9=SUNLOVERZ - SHINING SONG
TTITLE10=BASTIAN BATES - SO MUCH LOVE
TTITLE11=BOSSON - ONE IN A MILION(RADIO)
EXTD=
EXTT0=
EXTT1=
EXTT2=
EXTT3=
EXTT4=
EXTT5=
EXTT6=
EXTT7=
EXTT8=
EXTT9=
EXTT10=
EXTT11=
PLAYORDER=
